<svg height="512pt" viewBox="-14 0 511 512" width="512pt" xmlns="http://www.w3.org/2000/svg"><path d="m437 256c0-12.300781-1.199219-24.601562-3.898438-37.199219l50.097657-54.902343-40.800781-70.800782-72.597657 15.898438c-18.902343-16.5-41.101562-29.097656-64.5-37.5l-22.5-71.496094h-81.902343l-22.199219 71.5c-23.398438 8.398438-45.601563 21-64.5 37.5l-72.597657-15.898438-41.101562 70.796876 50.101562 54.902343c-2.402343 12.597657-3.601562 24.898438-3.601562 37.199219s1.199219 24.601562 3.601562 37.199219l-50.101562 54.902343 41.101562 70.796876 72.597657-15.898438c18.902343 16.5 41.101562 29.101562 64.5 37.5l22.199219 71.5h81.902343l22.5-71.5c23.398438-8.398438 45.597657-21 64.5-37.5l72.597657 15.898438 40.800781-70.796876-50.097657-54.902343c2.699219-12.597657 3.898438-24.898438 3.898438-37.199219zm-192.898438 105h-2.101562c-57.898438 0-105-47.101562-105-105s47.101562-105 105-105h2.101562c57 1.199219 102.898438 47.699219 102.898438 105s-45.898438 103.800781-102.898438 105zm0 0" fill="#dce1eb"/><path d="m433.101562 293.199219 50.097657 54.902343-40.800781 70.800782-72.597657-15.902344c-18.902343 16.5-41.101562 29.101562-64.5 37.5l-22.5 71.5h-38.699219v-151c57-1.199219 102.898438-47.699219 102.898438-105s-45.898438-103.800781-102.898438-105v-151h38.699219l22.5 71.5c23.398438 8.398438 45.597657 21 64.5 37.5l72.597657-15.898438 40.800781 70.796876-50.097657 54.902343c2.699219 12.597657 3.898438 24.898438 3.898438 37.199219s-1.199219 24.601562-3.898438 37.199219zm0 0" fill="#bec3d2"/></svg>