<?xml version="1.0" standalone="no"?><!DOCTYPE svg PUBLIC "-//W3C//DTD SVG 1.1//EN" "http://www.w3.org/Graphics/SVG/1.1/DTD/svg11.dtd"><svg t="1595816218557" class="icon" viewBox="0 0 1024 1024" version="1.1" xmlns="http://www.w3.org/2000/svg" p-id="1307" xmlns:xlink="http://www.w3.org/1999/xlink" width="200" height="200"><defs><style type="text/css"></style></defs><path d="M61.281 512a450.56 450.56 0 1 0 901.12 0 450.56 450.56 0 1 0-901.12 0z" fill="#95ACF5" p-id="1308"></path><path d="M240.803 583.997a346.64 346.64 0 1 0 693.28 0 346.64 346.64 0 1 0-693.28 0z" fill="#7998EF" p-id="1309"></path><path d="M481.659 486.22a245.248 245.248 0 1 1 0.03 346.773 245.207 245.207 0 0 1-0.03-346.772z" fill="#5F87E9" p-id="1310"></path><path d="M752.584 737.28H271.36a41.042 41.042 0 0 1-40.96-41.011V327.71a41.042 41.042 0 0 1 40.96-40.991h481.198a41.047 41.047 0 0 1 41.042 40.99V696.27a41.042 41.042 0 0 1-41.016 41.011zM271.36 325.12a2.56 2.56 0 0 0-2.56 2.56v368.589a2.56 2.56 0 0 0 2.56 2.56h481.198a2.56 2.56 0 0 0 2.56-2.56V327.71a2.56 2.56 0 0 0-2.56-2.56H271.36z m267.571 316.959h-223.12a19.215 19.215 0 0 1-19.204-19.22v-49.066a19.226 19.226 0 0 1 10.004-16.896l57.933-31.585a64.44 64.44 0 0 1-12.62-38.175v-28.994a76.221 76.221 0 1 1 152.442 0v29.01a64.312 64.312 0 0 1-13.02 38.697l56.832 31.098a19.226 19.226 0 0 1 9.994 16.86v49.066a19.215 19.215 0 0 1-19.215 19.22z m-203.914-38.431h184.735v-18.432l-61.722-33.792a25.759 25.759 0 0 1-2.785-43.448 25.462 25.462 0 0 0 10.675-20.823v-29.01a37.806 37.806 0 1 0-75.612 0v29.01a25.544 25.544 0 0 0 10.383 20.659 25.754 25.754 0 0 1-3.072 43.238l-62.602 34.166v18.432z m141.44-85.94z m233.738-53.974H576.968v-38.426H710.2v38.436z m-38.4 72.125h-94.827v-38.425h94.817v38.435z m38.4 80.22H576.968v-38.435H710.2v38.435z" fill="#FFFFFF" p-id="1311"></path></svg>