<?xml version="1.0" encoding="iso-8859-1"?>
<!-- Uploaded to: SVG Repo, www.svgrepo.com, Generator: SVG Repo Mixer Tools -->
<svg height="800px" width="800px" version="1.1" id="Layer_1" xmlns="http://www.w3.org/2000/svg" xmlns:xlink="http://www.w3.org/1999/xlink" 
	 viewBox="0 0 297 297" xml:space="preserve">
<g>
	<g>
		<g>
			<circle style="fill:#345065;" cx="148.5" cy="148.5" r="148.5"/>
		</g>
	</g>
	<path style="fill:#2C3E50;" d="M216.895,109.734l-174.216,84.12l103.112,103.112c0.902,0.016,1.804,0.034,2.709,0.034
		c69.329,0,127.557-47.51,143.913-111.748L216.895,109.734z"/>
	<g>
		<path style="fill:#CDD1D3;" d="M49,182c0-54.952,44.548-99.5,99.5-99.5S248,127.048,248,182H49z"/>
	</g>
	<g>
		<path style="fill:#A3A7A8;" d="M148.5,82.5V182H248C248,127.048,203.452,82.5,148.5,82.5z"/>
	</g>
	<g>
		<path style="fill:#99ABD5;" d="M54.5,198.5h188c9.941,0,18-8.059,18-18l0,0h-224l0,0C36.5,190.441,44.559,198.5,54.5,198.5z"/>
	</g>
	<g>
		<circle style="fill:#99ABD5;" cx="148.5" cy="74.5" r="8.5"/>
	</g>
	<g>
		<path style="fill:#8092B7;" d="M148.5,180.5v18h94c9.941,0,18-8.059,18-18H148.5z"/>
	</g>
	<g>
		<path style="fill:#8092B7;" d="M157,74.5c0-4.694-3.806-8.5-8.5-8.5v17C153.194,83,157,79.194,157,74.5z"/>
	</g>
</g>
</svg>