<?xml version="1.0" standalone="no"?><!DOCTYPE svg PUBLIC "-//W3C//DTD SVG 1.1//EN" "http://www.w3.org/Graphics/SVG/1.1/DTD/svg11.dtd"><svg t="1595816025497" class="icon" viewBox="0 0 1024 1024" version="1.1" xmlns="http://www.w3.org/2000/svg" p-id="1175" xmlns:xlink="http://www.w3.org/1999/xlink" width="200" height="200"><defs><style type="text/css"></style></defs><path d="M61.281 512a450.56 450.56 0 1 0 901.12 0 450.56 450.56 0 1 0-901.12 0z" fill="#92CEF8" p-id="1176"></path><path d="M240.803 583.997a346.64 346.64 0 1 0 693.28 0 346.64 346.64 0 1 0-693.28 0z" fill="#62B4F9" p-id="1177"></path><path d="M481.659 486.22a245.248 245.248 0 1 1 0.03 346.773 245.207 245.207 0 0 1-0.03-346.772z" fill="#3599F3" p-id="1178"></path><path d="M509.44 245.76a268.8 268.8 0 1 0 268.8 268.8 269.102 269.102 0 0 0-268.8-268.8z m0 497.664A228.864 228.864 0 1 1 738.304 514.56 229.12 229.12 0 0 1 509.44 743.424z m0.287-386.458a20.096 20.096 0 0 0-18.289 11.31l-118.103 245.51 35.994 17.315 43.008-89.39H561.05l39.628 88.868 36.475-16.266-109.476-245.514a19.968 19.968 0 0 0-17.95-11.838zM471.552 501.76l37.202-77.312 34.478 77.312h-71.68z" fill="#FFFFFF" p-id="1179"></path></svg>