<?xml version="1.0" encoding="iso-8859-1"?>
<!-- Uploaded to: SVG Repo, www.svgrepo.com, Generator: SVG Repo Mixer Tools -->
<svg height="800px" width="800px" version="1.1" id="Layer_1" xmlns="http://www.w3.org/2000/svg" xmlns:xlink="http://www.w3.org/1999/xlink" 
	 viewBox="0 0 297 297" xml:space="preserve">
<g>
	<g>
		<g>
			<circle style="fill:#0EA6CB;" cx="148.5" cy="148.5" r="148.5"/>
		</g>
	</g>
	<path style="fill:#3A6F81;" d="M296.89,143.057L231,77.167L93.736,251.474l45.212,45.212c3.159,0.201,6.342,0.314,9.552,0.314
		c82.014,0,148.5-66.486,148.5-148.5C297,146.677,296.956,144.864,296.89,143.057z"/>
	<g>
		<path style="fill:#ECF0F1;" d="M105.916,256.5h86.39c8.693,0,16.039-6.446,17.168-15.065L231,77.167H66L88.765,241.56
			C89.951,250.123,97.271,256.5,105.916,256.5z"/>
	</g>
	<g>
		<path style="fill:#D2D7D8;" d="M149.667,77.167V256.5h42.639c8.693,0,16.039-6.446,17.168-15.065L231,77.167H149.667z"/>
	</g>
	<g>
		<path style="fill:#CBE3E3;" d="M86.575,146l11.602,83.785c0.999,7.214,7.166,12.586,14.449,12.586h72.777
			c7.323,0,13.511-5.43,14.463-12.691L210.832,146H86.575z"/>
	</g>
	<g>
		<path style="fill:#B4CCCB;" d="M149.667,146v96.371h35.736c7.323,0,13.511-5.43,14.463-12.691L210.832,146H149.667z"/>
	</g>
	<g>
		<path style="fill:#99ABD5;" d="M183.952,162.27l-19.299,4.571c-3.538,0.838-7.086-1.351-7.924-4.889l-4.571-19.299
			c-0.838-3.538,1.351-7.086,4.889-7.924l19.299-4.571c3.538-0.838,7.086,1.351,7.924,4.889l4.571,19.299
			C189.679,157.885,187.49,161.432,183.952,162.27z"/>
	</g>
	<g>
		<path style="fill:#99ABD5;" d="M116.556,171.636l-14.412-13.626c-2.642-2.498-2.759-6.665-0.261-9.307l13.626-14.412
			c2.498-2.642,6.665-2.759,9.307-0.261l14.412,13.626c2.642,2.498,2.759,6.665,0.261,9.307l-13.626,14.412
			C123.365,174.017,119.198,174.134,116.556,171.636z"/>
	</g>
</g>
</svg>