<?xml version="1.0" standalone="no"?><!DOCTYPE svg PUBLIC "-//W3C//DTD SVG 1.1//EN" "http://www.w3.org/Graphics/SVG/1.1/DTD/svg11.dtd"><svg t="1617186269668" class="icon" viewBox="0 0 1024 1024" version="1.1" xmlns="http://www.w3.org/2000/svg" p-id="1010" xmlns:xlink="http://www.w3.org/1999/xlink" width="200" height="200"><defs><style type="text/css"></style></defs><path d="M704.77913 82.365217H288.50087c-31.610435 0-57.433043 25.822609-57.433044 57.433044v744.403478c0 31.610435 25.822609 57.433043 57.433044 57.433044h545.391304c31.610435 0 57.433043-25.822609 57.433043-57.433044V268.911304l-186.546087-186.546087z" fill="#FCEDE6" p-id="1011"></path><path d="M704.77913 211.478261c0 31.610435 25.822609 57.433043 57.433044 57.433043h129.113043l-186.546087-186.546087v129.113044z" fill="#FC8670" p-id="1012"></path><path d="M501.76 833.892174H164.285217c-17.363478 0-31.610435-13.356522-31.610434-29.829565V658.921739c0-16.473043 14.246957-29.829565 31.610434-29.829565h337.029566c17.363478 0 31.610435 13.356522 31.610434 29.829565v144.695652c0.445217 16.918261-13.801739 30.274783-31.165217 30.274783z" fill="#F9742B" p-id="1013"></path><path d="M228.841739 767.554783v30.274782h-28.048696v-30.274782h28.048696zM313.878261 715.01913h-32.50087v-6.67826c0-5.787826-0.445217-9.349565-0.890434-10.685218s-2.226087-2.226087-4.897392-2.226087c-2.226087 0-3.561739 0.890435-4.452174 2.226087s-1.335652 3.561739-1.335652 6.233044c0 3.561739 0.445217 6.233043 0.890435 8.013913s2.226087 3.561739 4.452174 5.787826 8.013913 4.897391 16.027826 8.904348c10.685217 5.342609 17.808696 10.24 20.925217 14.692174s4.897391 11.130435 4.897392 20.034782c0 9.794783-1.335652 17.363478-4.006957 22.26087s-6.678261 8.904348-12.911304 11.575652-13.356522 4.006957-21.815652 4.006956c-9.349565 0-17.363478-1.335652-24.04174-4.452174s-11.130435-6.678261-13.801739-12.020869-3.561739-12.466087-3.561739-22.706087v-5.787826h32.50087v7.568696c0 6.678261 0.445217 10.685217 1.335652 12.911304s2.226087 3.116522 4.897391 3.116522c2.671304 0 4.452174-0.445217 5.342609-1.78087s1.335652-4.006957 1.335652-8.45913c0-5.787826-0.890435-9.349565-2.226087-10.685218-1.335652-1.335652-8.45913-5.787826-21.370435-12.911304-10.685217-6.233043-17.363478-11.575652-20.034782-16.473044s-3.561739-10.685217-3.561739-17.808695c0-9.794783 1.335652-16.918261 4.006956-21.370435s6.678261-8.013913 12.911304-10.685217 13.356522-3.561739 21.370435-3.56174c8.013913 0 14.692174 0.890435 20.48 3.116522s9.794783 4.897391 12.911305 8.013913 4.897391 6.233043 5.342608 9.349565 0.890435 7.123478 0.890435 13.356522v7.123478zM410.490435 676.730435v138.017391h-36.953044v-26.713043c-3.561739 5.342609-6.678261 8.45913-9.794782 9.794782-3.116522 1.335652-6.678261 2.226087-11.130435 2.226087-6.233043 0-11.575652-1.335652-16.027826-4.452174s-7.123478-7.123478-8.459131-12.020869-2.226087-12.466087-2.226087-22.26087v-53.426087c0-8.013913 0.445217-14.246957 1.78087-18.253913s3.561739-7.568696 8.013913-10.685217 8.904348-4.452174 14.692174-4.452174c4.452174 0 8.904348 0.890435 12.911304 3.116522s7.568696 5.342609 10.685218 9.349565V676.730435h36.507826z m-36.953044 32.946087c0-5.342609-0.445217-8.904348-1.335652-10.685218s-2.226087-2.671304-4.452174-2.671304-3.561739 0.890435-4.006956 2.671304-0.890435 5.342609-0.890435 11.130435v53.871304c0 6.678261 0.445217 10.685217 0.890435 12.466087s2.226087 2.671304 4.452174 2.671305 3.561739-0.890435 4.452174-2.671305 0.890435-5.787826 0.890434-11.575652v-55.206956zM461.690435 650.017391v147.812174h-37.843478V650.017391h37.843478z" fill="#FFFFFF" p-id="1014"></path><path d="M492.855652 463.471304c-49.41913 0-101.064348-7.568696-130.893913-28.493913-4.006957 6.678261-5.342609 11.575652-5.342609 16.918261 0 35.172174 69.89913 51.645217 135.791305 51.645218s135.791304-16.918261 135.791304-52.98087c0-5.342609-1.335652-10.24-5.342609-16.918261-28.93913 20.925217-80.584348 29.829565-130.003478 29.829565z m0 0" fill="#FC8670" p-id="1015"></path><path d="M492.855652 404.257391c-49.41913 0-101.064348-7.568696-130.893913-28.493913-4.006957 6.678261-5.342609 11.575652-5.342609 16.918261 0 36.062609 69.89913 52.98087 135.791305 52.98087s135.791304-16.918261 135.791304-52.98087c0-5.342609-1.335652-10.24-5.342609-16.918261-28.93913 19.144348-80.584348 28.493913-130.003478 28.493913z m0 0" fill="#FC8670" p-id="1016"></path><path d="M492.855652 344.598261c-49.41913 0-101.064348-7.568696-130.893913-28.493913-4.006957 5.342609-5.342609 10.24-5.342609 15.582609 0 36.062609 69.89913 52.98087 135.791305 52.980869s135.791304-16.918261 135.791304-52.980869c0-5.342609-1.335652-10.24-5.342609-16.918261-28.93913 20.48-80.584348 29.829565-130.003478 29.829565z m0 0" fill="#FC8670" p-id="1017"></path><path d="M492.855652 219.046957c-65.892174 0-135.791304 16.918261-135.791304 52.980869 0 36.062609 69.89913 52.98087 135.791304 52.98087s135.791304-16.918261 135.791305-52.98087c0.445217-36.507826-69.453913-52.98087-135.791305-52.980869z m0 0" fill="#FC8670" p-id="1018"></path></svg>