<?xml version="1.0" standalone="no"?><!DOCTYPE svg PUBLIC "-//W3C//DTD SVG 1.1//EN" "http://www.w3.org/Graphics/SVG/1.1/DTD/svg11.dtd"><svg t="1617186237499" class="icon" viewBox="0 0 1024 1024" version="1.1" xmlns="http://www.w3.org/2000/svg" p-id="871" xmlns:xlink="http://www.w3.org/1999/xlink" width="200" height="200"><defs><style type="text/css"></style></defs><path d="M704.77913 82.365217H288.50087c-31.610435 0-57.433043 25.822609-57.433044 57.433044v744.403478c0 31.610435 25.822609 57.433043 57.433044 57.433044h545.391304c31.610435 0 57.433043-25.822609 57.433043-57.433044V268.911304l-186.546087-186.546087z" fill="#EFEFEF" p-id="872"></path><path d="M704.77913 211.478261c0 31.610435 25.822609 57.433043 57.433044 57.433043h129.113043l-186.546087-186.546087v129.113044zM341.481739 216.375652h272.473044v38.288696H341.481739zM341.481739 300.966957h272.473044v38.288695H341.481739zM341.481739 385.558261h363.742609v38.288696H341.481739zM341.481739 469.704348h444.772174v38.288695H341.481739z" fill="#D8D8D8" p-id="873"></path><path d="M501.76 833.892174H164.285217c-17.363478 0-31.610435-13.356522-31.610434-29.829565V658.921739c0-16.473043 14.246957-29.829565 31.610434-29.829565h337.029566c17.363478 0 31.610435 13.356522 31.610434 29.829565v144.695652c0.445217 16.918261-13.801739 30.274783-31.165217 30.274783z" fill="#A3A3A3" p-id="874"></path><path d="M249.321739 767.554783v30.274782h-28.048696v-30.274782H249.321739zM298.295652 660.257391v19.144348h9.794783v19.144348H298.295652v65.001739c0 8.013913 0.445217 12.466087 1.335652 13.356522s4.452174 1.335652 10.24 1.335652v19.589565h-14.692174c-8.45913 0-14.246957-0.445217-17.808695-0.890435s-6.678261-2.226087-9.349565-4.897391-4.452174-5.342609-4.897392-8.45913-0.890435-11.130435-0.890435-23.151305V698.991304h-8.013913v-19.144347h8.013913v-19.144348H298.295652zM389.565217 676.730435l-14.692174 57.878261 17.808696 63.220869h-36.062609c-3.561739-16.027826-6.233043-29.829565-8.013913-41.405217-2.671304 14.246957-5.342609 28.048696-8.013913 41.405217h-30.72l16.027826-63.220869-16.027826-57.878261h30.72c4.897391 24.932174 7.568696 38.733913 8.013913 42.295652 3.561739-20.48 6.233043-34.726957 8.013913-42.295652h32.946087zM436.313043 660.257391v19.144348h9.794783v19.144348H436.313043v65.001739c0 8.013913 0.445217 12.466087 1.335653 13.356522s4.452174 1.335652 10.24 1.335652v19.589565h-14.692174c-8.45913 0-14.246957-0.445217-17.808696-0.890435s-6.678261-2.226087-9.349565-4.897391-4.452174-5.342609-4.897391-8.45913-0.890435-11.130435-0.890435-23.151305V698.991304h-8.013913v-19.144347h8.013913v-19.144348H436.313043z" fill="#FFFFFF" p-id="875"></path></svg>