<?xml version="1.0" standalone="no"?><!DOCTYPE svg PUBLIC "-//W3C//DTD SVG 1.1//EN" "http://www.w3.org/Graphics/SVG/1.1/DTD/svg11.dtd"><svg t="1617186287788" class="icon" viewBox="0 0 1024 1024" version="1.1" xmlns="http://www.w3.org/2000/svg" p-id="1153" xmlns:xlink="http://www.w3.org/1999/xlink" width="200" height="200"><defs><style type="text/css"></style></defs><path d="M704.77913 82.365217H288.50087c-31.610435 0-57.433043 25.822609-57.433044 57.433044v744.403478c0 31.610435 25.822609 57.433043 57.433044 57.433044h545.391304c31.610435 0 57.433043-25.822609 57.433043-57.433044V268.911304l-186.546087-186.546087z" fill="#E4F5F9" p-id="1154"></path><path d="M704.77913 211.478261c0 31.610435 25.822609 57.433043 57.433044 57.433043h129.113043l-186.546087-186.546087v129.113044z" fill="#58CFF9" p-id="1155"></path><path d="M501.76 833.892174H164.285217c-17.363478 0-31.610435-13.356522-31.610434-29.829565V658.921739c0-16.473043 14.246957-29.829565 31.610434-29.829565h337.029566c17.363478 0 31.610435 13.356522 31.610434 29.829565v144.695652c0.445217 16.918261-13.801739 30.274783-31.165217 30.274783z" fill="#21B7F9" p-id="1156"></path><path d="M239.972174 767.554783v30.274782h-28.048696v-30.274782h28.048696zM307.2 676.730435v26.713043l-27.158261 69.899131H307.2v24.486956H244.424348v-25.377391l27.603478-71.68h-24.932174V676.730435H307.2zM353.502609 650.017391v19.144348h-37.843479V650.017391h37.843479z m0 26.713044v121.09913h-37.843479V676.730435h37.843479zM404.257391 676.730435l-0.445217 10.685217c3.116522-4.452174 7.123478-7.568696 10.685217-9.794782 4.006957-2.226087 8.45913-3.116522 12.911305-3.116522 5.787826 0 10.685217 1.335652 14.692174 4.452174s6.678261 6.678261 8.013913 10.685217 1.335652 10.685217 1.335652 20.48V761.321739c0 11.130435-0.445217 18.69913-1.78087 23.596522s-4.006957 8.45913-8.013913 11.130435-8.904348 4.006957-14.692174 4.006956c-4.452174 0-8.904348-0.890435-12.911304-3.116522s-7.568696-5.342609-10.685217-9.349565v27.603478h-36.953044V676.730435h37.843478z m10.24 35.172174c0-7.568696-0.445217-12.02087-0.890434-13.801739s-2.226087-2.226087-4.452174-2.226087-4.006957 0.890435-4.897392 2.671304-0.890435 6.233043-0.890434 13.356522v50.309565c0 7.123478 0.445217 12.02087 0.890434 13.801739s2.226087 2.671304 4.897392 2.671304c2.226087 0 4.006957-0.890435 4.452174-2.671304s0.890435-5.787826 0.890434-12.02087v-52.090434z" fill="#FFFFFF" p-id="1157"></path><path d="M428.29913 463.026087h29.829566v29.829565h-29.829566V463.026087z m44.966957-44.966957H413.161739v89.933913h60.104348V418.05913zM473.266087 283.158261h-30.274783v29.829565h30.274783v30.274783h-30.274783v29.829565h30.274783v30.274783h-30.274783v-30.274783h-29.829565v-29.829565h29.829565v-30.274783h-29.829565v-29.829565h29.829565v-29.829565h-29.829565v-30.274783h29.829565v30.274783h30.274783z" fill="#58CFF9" p-id="1158"></path></svg>