<svg xmlns="http://www.w3.org/2000/svg" width="16" height="16" viewBox="0 0 16 16" shape-rendering="crispEdges"><path fill="#808080" d="M14 4h1v1h-1zM13 5h2v1h-2zM12 6h2v1h-2zM11 7h2v1h-2zM10 8h2v1h-2zM9 9h2v1h-2zM8 10h2v1h-2zM7 11h2v1h-2zM6 12h2v1h-2zM5 13h2v1h-2zM4 14h2v1h-2zM14 8h1v1h-1zM13 9h2v1h-2zM12 10h2v1h-2zM11 11h2v1h-2zM10 12h2v1h-2zM9 13h2v1h-2zM8 14h2v1h-2zM14 12h1v1h-1zM13 13h2v1h-2zM12 14h2v1h-2z"/><path fill="#fff" d="M14 3h1v1h-1zM13 4h1v1h-1zM12 5h1v1h-1zM11 6h1v1h-1zM10 7h1v1h-1zM9 8h1v1h-1zM8 9h1v1h-1zM7 10h1v1h-1zM6 11h1v1h-1zM5 12h1v1h-1zM4 13h1v1h-1zM3 14h1v1h-1zM14 7h1v1h-1zM13 8h1v1h-1zM12 9h1v1h-1zM11 10h1v1h-1zM10 11h1v1h-1zM9 12h1v1h-1zM8 13h1v1h-1zM7 14h1v1h-1zM14 11h1v1h-1zM13 12h1v1h-1zM12 13h1v1h-1zM11 14h1v1h-1z"/></svg>
